<svg width="46" height="46" viewBox="0 0 46 46" fill="none" xmlns="http://www.w3.org/2000/svg">
<rect x="0.5" y="0.5" width="45" height="45" rx="11.5" fill="white" stroke="black"/>
<path d="M22.7531 6.97991V6.97981C18.6142 6.93775 14.6279 8.54075 11.6703 11.4365C8.71364 14.3313 7.02691 18.2813 6.98048 22.4188C6.99726 25.6873 8.04909 28.8666 9.98508 31.5003C11.9151 34.1258 14.6249 36.0745 17.7275 37.0687C18.0033 37.1128 18.1047 37.042 18.1353 37.0146C18.1799 36.9747 18.2184 36.896 18.2184 36.7861V36.7835V36.781V36.7785V36.7759V36.7733V36.7708V36.7682V36.7656V36.7629V36.7603V36.7577V36.755V36.7524V36.7497V36.747V36.7443V36.7416V36.7389V36.7362V36.7334V36.7306V36.7279V36.7251V36.7223V36.7195V36.7167V36.7139V36.711V36.7082V36.7053V36.7024V36.6996V36.6967V36.6938V36.6908V36.6879V36.685V36.682V36.679V36.6761V36.6731V36.6701V36.6671V36.664V36.661V36.6579V36.6549V36.6518V36.6487V36.6456V36.6425V36.6394V36.6363V36.6331V36.63V36.6268V36.6237V36.6205V36.6173V36.6141V36.6108V36.6076V36.6044V36.6011V36.5978V36.5946V36.5913V36.588V36.5847V36.5813V36.578V36.5747V36.5713V36.5679V36.5646V36.5612V36.5578V36.5543V36.5509V36.5475V36.544V36.5406V36.5371V36.5336V36.5301V36.5266V36.5231V36.5196V36.516V36.5125V36.5089V36.5053V36.5017V36.4981V36.4945V36.4909V36.4873V36.4836V36.48V36.4763V36.4727V36.469V36.4653V36.4616V36.4578V36.4541V36.4504V36.4466V36.4428V36.4391V36.4353V36.4315V36.4277V36.4238V36.42V36.4162V36.4123V36.4084V36.4046V36.4007V36.3968V36.3929V36.389V36.385V36.3811V36.3771V36.3731V36.3692V36.3652V36.3612V36.3572V36.3532V36.3491V36.3451V36.341V36.337V36.3329V36.3288V36.3247V36.3206V36.3165V36.3123V36.3082V36.304V36.2999V36.2957V36.2915V36.2873V36.2831V36.2789V36.2746V36.2704V36.2661V36.2619V36.2576V36.2533V36.249V36.2447V36.2404V36.2361V36.2317V36.2274V36.223V36.2186V36.2143V36.2099V36.2055V36.201V36.1966V36.1922V36.1877V36.1833V36.1788V36.1743V36.1698V36.1653V36.1608V36.1563V36.1517V36.1472V36.1426V36.1381V36.1335V36.1289V36.1243V36.1197V36.1151V36.1104V36.1058V36.1011V36.0965V36.0918V36.0871V36.0824V36.0777V36.073V36.0683V36.0635V36.0588V36.054V36.0492V36.0445V36.0397V36.0349V36.03V36.0252V36.0204V36.0155V36.0107V36.0058V36.0009V35.996V35.9911V35.9862V35.9813V35.9764V35.9714V35.9665V35.9615V35.9566V35.9516V35.9466V35.9416V35.9366V35.9315V35.9265V35.9215V35.9164V35.9113V35.9062V35.9012V35.8961V35.8909V35.8858V35.8807V35.8756V35.8704V35.8652V35.8601V35.8549V35.8497V35.8445V35.8393V35.8341V35.8288V35.8236V35.8183V35.8131V35.8078V35.8025V35.7972V35.7919V35.7866V35.7812V35.7759V35.7705V35.7652V35.7598V35.7544V35.7491V35.7436V35.7382V35.7328V35.7274V35.7219V35.7165V35.711V35.7056V35.7001V35.6946V35.6891V35.6836V35.678V35.6725V35.667V35.6614V35.6558V35.6503V35.6447V35.6391V35.6335V35.6279V35.6222V35.6166V35.611V35.6053V35.5996V35.594V35.5883V35.5826V35.5769V35.5712V35.5654V35.5597V35.5539V35.5482V35.5424V35.5366V35.5308V35.5251V35.5192V35.5134V35.5076V35.5018V35.4959V35.4901V35.4842V35.4783V35.4724V35.4665V35.4606V35.4547V35.4488V35.4428V35.4369V35.4309V35.425V35.419V35.413V35.407V35.401V35.395V35.3889V35.3829V35.3768V35.3708V35.3647V35.3586V35.3526V35.3465V35.3404V35.3342V35.3281V35.322V35.3158V35.3097V35.3035V35.2973V35.2911V35.2849V35.2787V35.2725V35.2663V35.2601V35.2538V35.2476V35.2413V35.235V35.2287V35.2224V35.2161V35.2098V35.2035V35.1972V35.1908V35.1845V35.1781V35.1717V35.1654V35.159V35.1526V35.1462V35.1397V35.1333V35.1269V35.1204V35.114V35.1075V35.101V35.0945V35.088V35.0815V35.075V35.0685V35.0619V35.0554V35.0488V35.0423V35.0357V35.0291V35.0225V35.0159V35.0093V35.0027V34.996V34.9894V34.9827V34.9761V34.9694V34.9627V34.956V34.9493V34.9426V34.9359V34.9292V34.9225V34.9157V34.909V34.9022V34.8954V34.8886V34.8818V34.875V34.8682V34.8614V34.8546V34.8477V34.8409V34.834V34.8271V34.8203V34.8134V34.8065V34.7996V34.7926V34.7857V34.7788V34.7718V34.7649V34.7579V34.751V34.744V34.737V34.73V34.723V34.7159V34.7089V34.7019V34.6948V34.6878V34.6807V34.676C16.1685 34.9776 14.8174 34.4555 13.9607 33.7619C13.5013 33.3899 13.2025 32.9834 13.0179 32.6679C12.9254 32.5099 12.8608 32.3736 12.8184 32.2737C12.7971 32.2237 12.7813 32.1827 12.7703 32.1525C12.7648 32.1373 12.7605 32.1249 12.7573 32.1153L12.7533 32.1032L12.7519 32.0988L12.7514 32.0971L12.7511 32.0963C12.751 32.096 12.7509 32.0956 13.2265 31.9477L12.7509 32.0956L12.7508 32.0954C12.485 31.2392 11.9199 30.5073 11.1588 30.0335L11.1475 30.0265L11.1476 30.0264C10.9476 29.8944 10.785 29.7697 10.6588 29.6497C10.5365 29.5335 10.4243 29.3993 10.3576 29.2437C10.2849 29.074 10.2639 28.8679 10.3553 28.6678C10.4383 28.4861 10.5818 28.3814 10.6857 28.3241C10.8852 28.214 11.1236 28.1781 11.2604 28.1631C11.3385 28.1545 11.4075 28.1506 11.4572 28.1488C11.4822 28.1479 11.5029 28.1475 11.5181 28.1473L11.5365 28.1472L11.5424 28.1472L11.5445 28.1472L11.5453 28.1472L11.5457 28.1472C11.5458 28.1472 11.546 28.1472 11.5414 28.6472L11.546 28.1472L11.5769 28.1475L11.6076 28.1516C12.1939 28.23 12.7549 28.4401 13.2484 28.7662C13.742 29.0923 14.1552 29.5258 14.4573 30.0344L14.4606 30.0399L14.4606 30.04C14.8543 30.7228 15.5004 31.2236 16.2598 31.4348C16.9408 31.6243 17.6642 31.5671 18.3038 31.2781C18.3924 30.77 18.5795 30.2863 18.852 29.8534C17.2892 29.6037 15.6971 29.1157 14.4268 28.0672C12.8885 26.7975 11.9007 24.7737 11.8997 21.6084C11.8681 19.9865 12.4311 18.4127 13.4766 17.1811C13.0437 15.7681 13.1383 14.2419 13.7493 12.8888L14.205 13.0945C14.0562 12.6172 14.0566 12.617 14.0571 12.6169L14.0581 12.6166L14.0601 12.616L14.0646 12.6146L14.0752 12.6116C14.083 12.6094 14.0922 12.607 14.1027 12.6044C14.1239 12.5993 14.1506 12.5935 14.183 12.5878C14.2479 12.5763 14.335 12.5652 14.445 12.5601C14.6654 12.5501 14.9747 12.5645 15.3769 12.6474C16.1484 12.8064 17.2566 13.2162 18.7348 14.1824C21.3473 13.5249 24.0822 13.5251 26.6947 14.1829C28.1926 13.2165 29.3006 12.8066 30.0666 12.6475C30.4659 12.5646 30.7715 12.55 30.9893 12.5602C31.0981 12.5652 31.1843 12.5765 31.2487 12.5882C31.2809 12.594 31.3075 12.5999 31.3288 12.6053C31.3394 12.6079 31.3486 12.6104 31.3565 12.6127L31.3673 12.6159L31.3719 12.6173L31.374 12.618L31.375 12.6183C31.3755 12.6185 31.376 12.6186 31.2227 13.0945L31.376 12.6186L31.5871 12.6866L31.6784 12.8888C32.2884 14.2398 32.3836 15.7634 31.9531 17.1746C33.0234 18.3862 33.6174 19.9501 33.6168 21.5738L22.7531 6.97991ZM22.7531 6.97991L22.7633 6.97981C26.9023 6.93775 30.8886 8.54075 33.8462 11.4365C36.8027 14.3312 38.4894 18.2811 38.536 22.4184C38.5159 25.6805 37.466 28.8528 35.536 31.4828C33.6116 34.1051 30.9104 36.0544 27.816 37.0546C27.6625 37.0779 27.5611 37.0175 27.4629 36.8986C27.4086 36.8329 27.3667 36.7594 27.3379 36.6992C27.3342 36.6914 27.3308 36.6839 27.3277 36.677V32.4259C27.3752 31.8146 27.2882 31.2002 27.0729 30.626C26.967 30.3436 26.8313 30.0743 26.6687 29.8224M22.7531 6.97991L26.6687 29.8224M26.6687 29.8224C28.2191 29.5732 29.8073 29.088 31.0777 28.0438C32.6207 26.7757 33.6168 24.7503 33.6168 21.574L26.6687 29.8224ZM13.2283 31.9471C13.2283 31.9471 14.1186 34.8097 18.2184 34.1704L13.2283 31.9471ZM13.2283 31.9471C12.9269 30.9762 12.2861 30.1463 11.423 29.609L13.2283 31.9471Z" fill="#646464" stroke="#545454"/>
</svg>
